# xmcd CD database file generated by MAGIX-FreeDB-MusicFinder_base v2.0beta1
# 
# Track frame offsets:
#      150
#      18269
#      38245
#      54270
#      70337
#      89265
#      103276
#      116510
#      130840
#      149427
#      167709
#      180435
#      199959
# 
# Disc length: 2825 seconds
# 
# Revision: 0 
# Processed by: cddbd v1.5.2PL0 Copyright (c) Steve Scherf et al.
# Submitted via: MAGIX-FreeDB-MusicFinder_base v2.0beta1
# 
DISCID=b40b070d
DTITLE=Crossfire - Strong Enough !
DYEAR=2007
DGENRE=Country
TTITLE0=Crossfire - I tried
TTITLE1=If you'd belong to me
TTITLE2=Crossfire - Hamburg
TTITLE3=Crossfire - No eyes for me
TTITLE4=Crossfire - Still strong enough
TTITLE5=Crossfire - Right here
TTITLE6=Crossfire - What in the world could I do
TTITLE7=Crossfire - Walkin' in
TTITLE8=Crossfire - Southern Streamline
TTITLE9=Crossfire - Don't eventhink about it
TTITLE10=Crossfire - Crazy
TTITLE11=Crossfire - Margaritaville
TTITLE12=Crossfire - Going my way
EXTD=
EXTT0=
EXTT1=
EXTT2=
EXTT3=
EXTT4=
EXTT5=
EXTT6=
EXTT7=
EXTT8=
EXTT9=
EXTT10=
EXTT11=
EXTT12=
PLAYORDER=
